<?xml version="1.0" encoding="UTF-8"?> <svg xmlns="http://www.w3.org/2000/svg" id="_Layer_" data-name="&lt;Layer&gt;" viewBox="0 0 343.11 37.68"> <defs> <style>.cls-1{fill:#a01e21;}.cls-2{fill:#636466;}</style> </defs> <title>HH_lockup with CHOP_Final_CMYK Horizontal</title> <rect class="cls-1" x="13.26" y="0.48" width="9.47" height="36"></rect> <rect class="cls-1" y="20.37" width="9.47" height="16.11"></rect> <rect class="cls-1" x="26.52" y="0.48" width="9.48" height="16.11"></rect> <rect class="cls-1" y="0.48" width="9.47" height="16.11"></rect> <rect class="cls-1" x="26.53" y="20.37" width="9.47" height="16.11"></rect> <path class="cls-2" d="M107.06,37.54a1.23,1.23,0,0,1,.16-.5.86.86,0,0,1,.36-.32,1.85,1.85,0,0,1,.79-.13,1.72,1.72,0,0,0,.5-.06c.37-.1.4-.58.41-.75a1,1,0,0,0-.16-.53.67.67,0,0,0-.6-.31h0c-.52,0-1,.05-1.49.06-1.41,0-2.94,0-4.53-.06a.67.67,0,0,0-.58.31,1,1,0,0,0-.16.54c0,.16,0,.63.41.73a1.82,1.82,0,0,0,.53.06,1.84,1.84,0,0,1,.78.13.79.79,0,0,1,.35.31,1.38,1.38,0,0,1,.15.51,5.59,5.59,0,0,1,0,.66v4.09H96.84V38.21a5.72,5.72,0,0,1,0-.66A1.29,1.29,0,0,1,97,37a.74.74,0,0,1,.34-.31,1.76,1.76,0,0,1,.78-.13,1.75,1.75,0,0,0,.52-.06c.36-.11.38-.58.39-.75a1,1,0,0,0-.14-.51.66.66,0,0,0-.61-.32C96.7,35,95.17,35,93.8,35c-.46,0-.95,0-1.49-.06a.65.65,0,0,0-.6.32,1,1,0,0,0-.14.53c0,.16,0,.63.39.73a1.76,1.76,0,0,0,.52.06,1.83,1.83,0,0,1,.78.13.76.76,0,0,1,.35.31,1.37,1.37,0,0,1,.15.51,6.23,6.23,0,0,1,0,.66V48a6.14,6.14,0,0,1,0,.66,1.31,1.31,0,0,1-.15.51.76.76,0,0,1-.35.31,1.79,1.79,0,0,1-.78.13,1.77,1.77,0,0,0-.52.06c-.36.11-.38.58-.39.75a1,1,0,0,0,.14.51.66.66,0,0,0,.61.32h0l1.48-.06c1.38,0,2.88,0,4.51.06a.66.66,0,0,0,.6-.32,1,1,0,0,0,.14-.53c0-.15,0-.63-.39-.73a1.76,1.76,0,0,0-.52-.06,1.76,1.76,0,0,1-.79-.13A.72.72,0,0,1,97,49.2a1.29,1.29,0,0,1-.15-.51,5.76,5.76,0,0,1,0-.66V43.94H104V48a5.63,5.63,0,0,1,0,.66,1.35,1.35,0,0,1-.15.51.75.75,0,0,1-.35.31,1.8,1.8,0,0,1-.78.13,1.94,1.94,0,0,0-.52.06c-.38.11-.4.58-.41.75a1,1,0,0,0,.16.53.67.67,0,0,0,.59.31h0c1.57-.07,3.08-.09,4.51-.06.48,0,1,0,1.52.06a.66.66,0,0,0,.58-.31.94.94,0,0,0,.16-.55c0-.15,0-.63-.41-.73a1.81,1.81,0,0,0-.5-.06,1.81,1.81,0,0,1-.79-.13.84.84,0,0,1-.36-.32,1.2,1.2,0,0,1-.16-.5,5.76,5.76,0,0,1,0-.66V38.21a5.83,5.83,0,0,1,0-.66" transform="translate(-36 -34.52)"></path> <path class="cls-2" d="M125.58,44.62h-4.33l2.22-5.38Zm6.59,5.09c-.26-.08-.75,0-1-.2a1.65,1.65,0,0,1-.4-.39,3.22,3.22,0,0,1-.31-.55c-.1-.22-.19-.43-.27-.65L126,37.67a7.45,7.45,0,0,0-.75-1.39,3,3,0,0,0-.92-.87,3.48,3.48,0,0,0-1.13-.42,7.62,7.62,0,0,0-1.4-.12,5.74,5.74,0,0,0-.74,0c-.16,0-.54.14-.54.75,0,.24,0,.57.29.69a2.34,2.34,0,0,0,.58.16,4.79,4.79,0,0,1,.54.13,1,1,0,0,1,.36.2.52.52,0,0,1,.15.28,1.11,1.11,0,0,1-.11.55L118,47.91l-.3.7a2.53,2.53,0,0,1-.32.55,1.32,1.32,0,0,1-.43.35,1.47,1.47,0,0,1-.67.13,1.78,1.78,0,0,0-.51.06c-.36.11-.39.58-.39.75a1,1,0,0,0,.14.51.67.67,0,0,0,.62.32h0l.68,0,.54,0h2.48l1.38.06a.66.66,0,0,0,.58-.31,1,1,0,0,0,.16-.54c0-.16,0-.63-.39-.73a1.77,1.77,0,0,0-.52-.06,7.63,7.63,0,0,1-1.08-.06c-.25,0-.34-.11-.37-.15a.47.47,0,0,1,0-.34c0-.23.13-.56.26-1s.36-1,.71-1.86h5.72l.76,1.87a4.81,4.81,0,0,1,.25.82.86.86,0,0,1,0,.43.37.37,0,0,1-.23.16,2.65,2.65,0,0,1-.82.1,1.81,1.81,0,0,0-.52.06c-.35.11-.38.56-.39.75a1,1,0,0,0,.14.51.66.66,0,0,0,.61.32h0c1-.05,2.07-.07,3.06-.07h1.33l1.39.06a.67.67,0,0,0,.58-.31,1,1,0,0,0,.16-.55c0-.17,0-.62-.39-.73" transform="translate(-36 -34.52)"></path> <path class="cls-2" d="M144.09,38.27a5.44,5.44,0,0,1,.07-1,1.19,1.19,0,0,1,.2-.5.66.66,0,0,1,.37-.22,3.41,3.41,0,0,1,.8-.08,5.55,5.55,0,0,1,1.9.28,3.21,3.21,0,0,1,1.16.7,2.43,2.43,0,0,1,.6,1,3.56,3.56,0,0,1,.18,1.11,5.88,5.88,0,0,1-.11,1,2.5,2.5,0,0,1-.43,1,2.58,2.58,0,0,1-1,.78,4.3,4.3,0,0,1-1.86.33h-1.88Zm10.38,11.44-.42-.07a1.91,1.91,0,0,1-.7-.19,4,4,0,0,1-.61-.39,18.59,18.59,0,0,1-2.19-2.76l-1.7-2.65a6.85,6.85,0,0,0,1.38-.6,6,6,0,0,0,1.33-1,4.29,4.29,0,0,0,.85-1.26,3.54,3.54,0,0,0,.3-1.41,3.78,3.78,0,0,0-1.43-3,5.82,5.82,0,0,0-1.84-1,8.88,8.88,0,0,0-2.66-.4h-5.7c-.47,0-1,0-1.5-.06a.66.66,0,0,0-.6.32,1,1,0,0,0-.14.53c0,.16,0,.63.39.73a1.78,1.78,0,0,0,.52.06,1.69,1.69,0,0,1,.78.14.81.81,0,0,1,.35.33,1.32,1.32,0,0,1,.15.51,5.51,5.51,0,0,1,0,.66V48a5.6,5.6,0,0,1,0,.66,1.33,1.33,0,0,1-.15.51.75.75,0,0,1-.35.31,1.78,1.78,0,0,1-.78.13,1.77,1.77,0,0,0-.52.06c-.36.11-.38.58-.39.75A1,1,0,0,0,139,51a.66.66,0,0,0,.62.32h0l1.47-.06c1.38,0,2.9,0,4.52.06a.66.66,0,0,0,.6-.32,1,1,0,0,0,.14-.53c0-.15,0-.63-.4-.73a1.83,1.83,0,0,0-.5-.06,1.79,1.79,0,0,1-.79-.13.77.77,0,0,1-.34-.31,1.34,1.34,0,0,1-.15-.51,6.26,6.26,0,0,1,0-.67V44.29h.42a3.53,3.53,0,0,1,.68.05,1.53,1.53,0,0,1,.41.14.86.86,0,0,1,.25.23l.31.42q.57.94,1.16,1.9c.4.64.84,1.28,1.3,1.91a6.66,6.66,0,0,0,1.43,1.52,4.53,4.53,0,0,0,1.9.76H153l1.16.06a.66.66,0,0,0,.6-.32,1,1,0,0,0,.14-.53c0-.54-.27-.69-.46-.73" transform="translate(-36 -34.52)"></path> <path class="cls-2" d="M174.36,35.19a1.1,1.1,0,0,0-.62-.17h-12.1a1.17,1.17,0,0,0-.63.17.77.77,0,0,0-.34.71l-.07,3.49a.7.7,0,0,0,.33.62,1.26,1.26,0,0,0,1.21,0,.75.75,0,0,0,.5-.56c.08-.54.17-1,.27-1.41a3,3,0,0,1,.37-.9,1.3,1.3,0,0,1,.54-.48,2.57,2.57,0,0,1,.93-.18h1.42V48a6,6,0,0,1,0,.66,1.37,1.37,0,0,1-.15.51.79.79,0,0,1-.35.31,1.79,1.79,0,0,1-.78.13,1.81,1.81,0,0,0-.52.06c-.36.11-.39.58-.4.75a1.06,1.06,0,0,0,.14.52.67.67,0,0,0,.61.32h0c1.54-.08,3-.09,4.5-.06.47,0,1,0,1.5.06a.66.66,0,0,0,.6-.32,1,1,0,0,0,.14-.53c0-.16,0-.63-.41-.73a1.81,1.81,0,0,0-.5-.06,1.84,1.84,0,0,1-.79-.13.78.78,0,0,1-.34-.31,1.36,1.36,0,0,1-.15-.51,5.73,5.73,0,0,1,0-.66V36.52h1.38a2.53,2.53,0,0,1,.94.19,1.25,1.25,0,0,1,.54.48,3.08,3.08,0,0,1,.38.9,12.79,12.79,0,0,1,.28,1.42.74.74,0,0,0,.47.54,1.28,1.28,0,0,0,1.21,0,.7.7,0,0,0,.35-.63l-.1-3.48a.79.79,0,0,0-.32-.71" transform="translate(-36 -34.52)"></path> <path class="cls-2" d="M208.75,37.55a1.23,1.23,0,0,1,.16-.5.83.83,0,0,1,.36-.32,1.84,1.84,0,0,1,.79-.13,1.75,1.75,0,0,0,.5-.06c.37-.1.4-.58.41-.75a1,1,0,0,0-.16-.53.67.67,0,0,0-.59-.31h0c-.53,0-1,.05-1.49.06-1.4,0-2.94,0-4.53-.06a.67.67,0,0,0-.58.31,1,1,0,0,0-.16.54c0,.16,0,.63.4.73a1.9,1.9,0,0,0,.53.06,1.83,1.83,0,0,1,.78.13.78.78,0,0,1,.35.31,1.4,1.4,0,0,1,.15.51,6,6,0,0,1,0,.66v4.09h-7.19V38.21a5.72,5.72,0,0,1,0-.66,1.35,1.35,0,0,1,.15-.51.75.75,0,0,1,.35-.31,1.75,1.75,0,0,1,.78-.13,1.79,1.79,0,0,0,.51-.06c.36-.11.38-.58.4-.75a1,1,0,0,0-.14-.51.65.65,0,0,0-.61-.32c-1.61.07-3.14.09-4.51.06-.46,0-.95,0-1.49-.06a.64.64,0,0,0-.6.32,1,1,0,0,0-.14.53c0,.17,0,.62.39.73a1.78,1.78,0,0,0,.52.06,1.82,1.82,0,0,1,.78.13.76.76,0,0,1,.34.31,1.33,1.33,0,0,1,.15.51,5.69,5.69,0,0,1,0,.66V48a5.83,5.83,0,0,1,0,.67,1.32,1.32,0,0,1-.15.51.76.76,0,0,1-.34.31,1.79,1.79,0,0,1-.78.13,1.81,1.81,0,0,0-.52.06c-.35.11-.38.56-.39.75a1,1,0,0,0,.14.51.66.66,0,0,0,.62.32h0l1.48-.06c1.39,0,2.88,0,4.51.06a.65.65,0,0,0,.6-.32,1,1,0,0,0,.14-.53c0-.16,0-.62-.39-.73a1.76,1.76,0,0,0-.52-.06,1.76,1.76,0,0,1-.79-.13.77.77,0,0,1-.35-.31,1.36,1.36,0,0,1-.15-.51,5.74,5.74,0,0,1,0-.66V43.94h7.19V48a6,6,0,0,1,0,.66,1.34,1.34,0,0,1-.15.51.75.75,0,0,1-.35.31,1.8,1.8,0,0,1-.78.13,2,2,0,0,0-.53.06c-.37.11-.4.58-.41.75a1,1,0,0,0,.16.53.68.68,0,0,0,.59.31h0c1.57-.07,3.08-.09,4.51-.06.48,0,1,0,1.52.06a.67.67,0,0,0,.58-.31,1,1,0,0,0,.16-.54c0-.16,0-.63-.41-.73a1.84,1.84,0,0,0-.5-.06,1.81,1.81,0,0,1-.79-.13.84.84,0,0,1-.36-.32,1.21,1.21,0,0,1-.16-.5,6.25,6.25,0,0,1,0-.67V38.21a6.1,6.1,0,0,1,0-.66" transform="translate(-36 -34.52)"></path> <path class="cls-2" d="M230.52,42.88a12.92,12.92,0,0,1-.29,2.77,7.64,7.64,0,0,1-.88,2.29,4.67,4.67,0,0,1-1.48,1.54,3.89,3.89,0,0,1-2.11.56,3.84,3.84,0,0,1-2-.54A4.6,4.6,0,0,1,222.25,48a7,7,0,0,1-.88-2.16,11.67,11.67,0,0,1-.29-2.62,13.14,13.14,0,0,1,.28-2.76,7.45,7.45,0,0,1,.85-2.26,4.48,4.48,0,0,1,1.45-1.51,3.85,3.85,0,0,1,2.09-.55,4,4,0,0,1,2.07.53,4.59,4.59,0,0,1,1.49,1.44,6.9,6.9,0,0,1,.9,2.15,11,11,0,0,1,.3,2.59m1.31-5.8a7.86,7.86,0,0,0-2.59-1.86,8.31,8.31,0,0,0-3.45-.69,7.84,7.84,0,0,0-2.88.58,8.17,8.17,0,0,0-2.64,1.71,8.84,8.84,0,0,0-1.92,2.76,9,9,0,0,0-.75,3.76,8.8,8.8,0,0,0,.58,3.15,8.46,8.46,0,0,0,1.63,2.68A7.84,7.84,0,0,0,222.38,51a8.16,8.16,0,0,0,3.41.69,7.78,7.78,0,0,0,2.89-.59,8.43,8.43,0,0,0,2.66-1.72,8.77,8.77,0,0,0,2.7-6.52,8.74,8.74,0,0,0-.58-3.12,8.35,8.35,0,0,0-1.64-2.68" transform="translate(-36 -34.52)"></path> <path class="cls-2" d="M284.12,46.43a1.32,1.32,0,0,0-.65,0,.83.83,0,0,0-.53.51c-.16.54-.31,1-.44,1.34a2.74,2.74,0,0,1-.42.79,1.15,1.15,0,0,1-.54.38,3.48,3.48,0,0,1-1,.15H278.3a1.79,1.79,0,0,1-.86-.11.87.87,0,0,1-.39-.31.84.84,0,0,1-.14-.39l0-.45V43.94h4.19a.6.6,0,0,0,.54-.29,1,1,0,0,0,.13-.49,1.14,1.14,0,0,0-.12-.5.66.66,0,0,0-.55-.36h-4.19v-5.7h3a2.7,2.7,0,0,1,.95.18,1.22,1.22,0,0,1,.54.44,2.86,2.86,0,0,1,.38.86,12.12,12.12,0,0,1,.28,1.41.79.79,0,0,0,.43.53,1.26,1.26,0,0,0,1.19,0,.69.69,0,0,0,.39-.64L284,35.9a.79.79,0,0,0-.32-.71A1.09,1.09,0,0,0,283,35h-9.2c-.46,0-1,0-1.52-.06a.63.63,0,0,0-.57.32,1,1,0,0,0-.14.53c0,.15,0,.63.39.73a1.69,1.69,0,0,0,.52.06,1.88,1.88,0,0,1,.79.13.79.79,0,0,1,.34.31,1.37,1.37,0,0,1,.15.51,6,6,0,0,1,0,.66V48a6,6,0,0,1,0,.66,1.33,1.33,0,0,1-.15.51.77.77,0,0,1-.34.31,1.84,1.84,0,0,1-.79.13,1.78,1.78,0,0,0-.52.06c-.36.11-.38.58-.39.75a1,1,0,0,0,.14.52.64.64,0,0,0,.59.32h0c.54,0,1-.05,1.51-.06h9.61a1.32,1.32,0,0,0,.62-.12.88.88,0,0,0,.38-.64l.5-3.14a.67.67,0,0,0-.32-.66,1.68,1.68,0,0,0-.51-.23" transform="translate(-36 -34.52)"></path> <path class="cls-2" d="M299.65,38.27a5.65,5.65,0,0,1,.07-1,1.19,1.19,0,0,1,.2-.5.66.66,0,0,1,.37-.22,3.39,3.39,0,0,1,.79-.08,5.56,5.56,0,0,1,1.91.28,3.25,3.25,0,0,1,1.16.7,2.45,2.45,0,0,1,.6,1,3.56,3.56,0,0,1,.18,1.11,5.87,5.87,0,0,1-.1,1,2.47,2.47,0,0,1-.43,1,2.56,2.56,0,0,1-1,.78,4.29,4.29,0,0,1-1.86.33h-1.88ZM310,49.71l-.42-.07a1.89,1.89,0,0,1-.7-.19,3.75,3.75,0,0,1-.61-.39,18.4,18.4,0,0,1-2.19-2.76l-1.7-2.65a6.83,6.83,0,0,0,1.38-.6,5.94,5.94,0,0,0,1.32-1,4.35,4.35,0,0,0,.85-1.26,3.56,3.56,0,0,0,.3-1.41,3.84,3.84,0,0,0-.35-1.58,3.8,3.8,0,0,0-1.08-1.38,5.78,5.78,0,0,0-1.84-1,8.86,8.86,0,0,0-2.66-.4h-5.7c-.47,0-1,0-1.5-.06a.66.66,0,0,0-.6.32,1.05,1.05,0,0,0-.14.53c0,.16,0,.63.39.73a1.78,1.78,0,0,0,.52.06,1.68,1.68,0,0,1,.78.14.83.83,0,0,1,.35.33,1.35,1.35,0,0,1,.15.51,5.51,5.51,0,0,1,0,.66V48a5.6,5.6,0,0,1,0,.66,1.36,1.36,0,0,1-.15.51.76.76,0,0,1-.35.31,1.77,1.77,0,0,1-.78.13,1.77,1.77,0,0,0-.52.06c-.36.11-.39.58-.4.75a1,1,0,0,0,.14.51.66.66,0,0,0,.62.32h0l1.47-.06c1.38,0,2.9,0,4.52.06a.66.66,0,0,0,.6-.32,1,1,0,0,0,.13-.53c0-.15,0-.63-.4-.73a1.79,1.79,0,0,0-.5-.06,1.8,1.8,0,0,1-.79-.13.77.77,0,0,1-.34-.31,1.31,1.31,0,0,1-.15-.51,5.74,5.74,0,0,1,0-.66V44.29h.42a3.55,3.55,0,0,1,.68.05,1.49,1.49,0,0,1,.41.14.86.86,0,0,1,.26.23l.31.42q.57.94,1.16,1.9c.4.64.84,1.28,1.3,1.91a6.56,6.56,0,0,0,1.43,1.52,4.57,4.57,0,0,0,1.9.76h1.07l1.16.06a.66.66,0,0,0,.6-.32,1,1,0,0,0,.13-.53c0-.54-.27-.69-.46-.73" transform="translate(-36 -34.52)"></path> <path class="cls-2" d="M330.45,35.19a1.1,1.1,0,0,0-.62-.17h-12.1a1.16,1.16,0,0,0-.62.17.77.77,0,0,0-.33.71l-.08,3.49A.7.7,0,0,0,317,40a1.26,1.26,0,0,0,1.21,0,.76.76,0,0,0,.5-.56c.08-.54.17-1,.27-1.41a3,3,0,0,1,.37-.9,1.27,1.27,0,0,1,.55-.48,2.57,2.57,0,0,1,.93-.18h1.41V48a5.6,5.6,0,0,1,0,.66,1.41,1.41,0,0,1-.15.51.79.79,0,0,1-.35.31,1.79,1.79,0,0,1-.78.13,1.81,1.81,0,0,0-.52.06c-.36.11-.39.58-.4.75a1,1,0,0,0,.14.52.66.66,0,0,0,.61.32h0c1.54-.07,3-.09,4.49-.06.47,0,1,0,1.5.06a.66.66,0,0,0,.6-.32,1,1,0,0,0,.14-.53c0-.16,0-.63-.41-.73a1.84,1.84,0,0,0-.5-.06,1.84,1.84,0,0,1-.79-.13.78.78,0,0,1-.34-.31,1.36,1.36,0,0,1-.15-.51,6.24,6.24,0,0,1,0-.66V36.52h1.38a2.56,2.56,0,0,1,.94.18,1.28,1.28,0,0,1,.55.48,3.13,3.13,0,0,1,.38.9,12.43,12.43,0,0,1,.28,1.42.75.75,0,0,0,.48.54,1.28,1.28,0,0,0,1.21,0,.7.7,0,0,0,.35-.63l-.1-3.48a.79.79,0,0,0-.32-.71" transform="translate(-36 -34.52)"></path> <path class="cls-2" d="M351.38,42.88a13,13,0,0,1-.29,2.77,7.69,7.69,0,0,1-.88,2.29,4.69,4.69,0,0,1-1.48,1.54,3.89,3.89,0,0,1-2.11.56,3.85,3.85,0,0,1-2-.54A4.59,4.59,0,0,1,343.12,48a7,7,0,0,1-.88-2.16,11.56,11.56,0,0,1-.29-2.62,13.26,13.26,0,0,1,.28-2.76,7.35,7.35,0,0,1,.86-2.26,4.48,4.48,0,0,1,1.45-1.51,3.85,3.85,0,0,1,2.1-.55,4,4,0,0,1,2.07.53,4.59,4.59,0,0,1,1.49,1.44,6.9,6.9,0,0,1,.9,2.15,11.07,11.07,0,0,1,.3,2.59m1.31-5.8a7.87,7.87,0,0,0-2.59-1.86,8.31,8.31,0,0,0-3.45-.69,7.84,7.84,0,0,0-2.88.58,8.2,8.2,0,0,0-2.64,1.71,8.86,8.86,0,0,0-1.92,2.76,9,9,0,0,0-.75,3.76,8.79,8.79,0,0,0,.58,3.15,8.46,8.46,0,0,0,1.63,2.68A7.84,7.84,0,0,0,343.24,51a8.16,8.16,0,0,0,3.41.69,7.79,7.79,0,0,0,2.89-.59,8.4,8.4,0,0,0,2.66-1.72,8.84,8.84,0,0,0,1.95-2.76,9,9,0,0,0,.76-3.76,8.74,8.74,0,0,0-.58-3.12,8.36,8.36,0,0,0-1.64-2.68" transform="translate(-36 -34.52)"></path> <path class="cls-2" d="M379,35.26a.66.66,0,0,0-.62-.32h0l-.66,0-.52,0H374.9l-.53,0-.7,0a.66.66,0,0,0-.58.3,1,1,0,0,0-.16.56c0,.17.08.61.41.71a1.69,1.69,0,0,0,.52.06,1.7,1.7,0,0,1,.77.13A.78.78,0,0,1,375,37a1.22,1.22,0,0,1,.14.5c0,.22,0,.45,0,.67l0,7.71-6.32-8.31a13.22,13.22,0,0,0-1.09-1.31,4.51,4.51,0,0,0-1.14-.86,4.68,4.68,0,0,0-1.37-.45,11.11,11.11,0,0,0-1.8-.13,5.63,5.63,0,0,0-.75,0c-.16,0-.54.14-.54.75,0,.24,0,.57.29.69a2.36,2.36,0,0,0,.58.16,4.18,4.18,0,0,1,.71.17,1,1,0,0,1,.4.24,1,1,0,0,1,.22.43,3.42,3.42,0,0,1,.09.85L364.4,48c0,.22,0,.45,0,.67a1.2,1.2,0,0,1-.14.5.78.78,0,0,1-.34.31,1.77,1.77,0,0,1-.77.13,1.81,1.81,0,0,0-.52.06c-.36.11-.38.58-.39.75a1,1,0,0,0,.14.52.66.66,0,0,0,.61.32h0l.66,0,.51,0h2.27l.54,0,.7,0a.67.67,0,0,0,.58-.31,1,1,0,0,0,.15-.54c0-.16,0-.63-.4-.73a2,2,0,0,0-.53-.06,1.73,1.73,0,0,1-.77-.13.77.77,0,0,1-.33-.31,1.2,1.2,0,0,1-.14-.5c0-.23,0-.45,0-.68l0-9L375,50.85a1.14,1.14,0,0,0,1,.44,1.67,1.67,0,0,0,.47-.08.6.6,0,0,0,.44-.54l.05-12.47c0-.22,0-.45,0-.67a1.22,1.22,0,0,1,.14-.5.77.77,0,0,1,.34-.31,1.71,1.71,0,0,1,.77-.13,1.71,1.71,0,0,0,.52-.06c.35-.11.38-.56.39-.75a1,1,0,0,0-.14-.52" transform="translate(-36 -34.52)"></path> <path class="cls-2" d="M263.36,34.92h0l-.66,0-.52,0h-2.44l-1.38-.06a.62.62,0,0,0-.57.32,1,1,0,0,0-.14.53c0,.15,0,.62.39.73a1.84,1.84,0,0,0,.52.06c.73,0,.86.12.87.12s.09.14-.06.72L256.78,46,253,35.19l-.07-.2h-1.72l-2.87,10.95-2.63-8.43h0c-.14-.58-.06-.71-.06-.71s.13-.13.87-.13a1.73,1.73,0,0,0,.52-.06c.36-.11.38-.58.39-.75a1,1,0,0,0-.14-.51.64.64,0,0,0-.59-.32h0c-.53,0-1,.06-1.36.06h-3.73l-.52,0-.68,0a.66.66,0,0,0-.6.32,1,1,0,0,0-.14.53c0,.15,0,.63.39.73a1.72,1.72,0,0,0,.52.06A2.74,2.74,0,0,1,242,37a1.68,1.68,0,0,1,.66.9l4.26,13.37.06.21h1.6l3-11.11,3.7,10.91.07.2h1.59L261.06,38a1.86,1.86,0,0,1,.75-1.15,2.74,2.74,0,0,1,1.4-.32,1.86,1.86,0,0,0,.52-.06c.35-.11.38-.58.39-.75a1,1,0,0,0-.14-.52.65.65,0,0,0-.62-.32" transform="translate(-36 -34.52)"></path> <path class="cls-2" d="M96.6,72h1.32V64.52h-1v6h0l-3.92-6H91.57V72h1V65.89h0Zm4.2,0h5v-.93h-3.92v-2.5h3.54v-.9h-3.54V65.44h3.76v-.92H100.8Zm14.66,0,2.2-7.49h-1.11l-1.65,6h0l-1.75-6H112l-1.76,6h0l-1.65-6h-1.13l2.2,7.49h1.09l1.82-6h0l1.82,6ZM126,68.77l2.8-4.26h-1.22l-2.09,3.39-2.07-3.39h-1.29l2.8,4.26V72H126Zm10.89-.52a2.84,2.84,0,1,1-2.85-3,2.82,2.82,0,0,1,2.85,3m1.13,0a4,4,0,1,0-4,3.95,3.8,3.8,0,0,0,4-3.95m4.74-.46h-1.21V65.41h1.28c.91,0,1.68.29,1.68,1.19s-.77,1.21-1.76,1.21M145.84,72l-2.1-3.44a2,2,0,0,0,1.82-2c0-1.52-1.22-2.07-2.67-2.07h-2.4V72h1V68.68h1.12l1.9,3.33Zm8.3,0-3.86-4.06,3.64-3.43h-1.45l-3.34,3.3h0v-3.3h-1V72h1V68.14h0L152.64,72Zm5.7-2.89h1.69V67.42h-1.69Zm8.8-2.7a1.31,1.31,0,0,1,1.46-1.22,1.79,1.79,0,0,1,1.46.7l.74-.72a2.94,2.94,0,0,0-2.15-.86c-1.24,0-2.57.65-2.57,2.14s1,1.81,1.95,2.11,1.78.54,1.78,1.45a1.36,1.36,0,0,1-1.5,1.28,2,2,0,0,1-1.67-.88l-.82.69a3.15,3.15,0,0,0,2.47,1.09,2.32,2.32,0,0,0,2.59-2.28c0-1.49-1.2-1.87-2.2-2.19-.85-.28-1.53-.5-1.53-1.31m10.51,2.83h-2.8l1.41-3.51ZM180.29,72h1.19l-3.22-7.49h-1L174.05,72h1.16l.75-1.84h3.56Zm8.23,0h1.32V64.52h-1v6h0l-3.92-6H183.5V72h1V65.89h0Zm9-6.57h3.63v-.92h-4.68V72h1V68.67h3.4v-.9h-3.4Zm8.28,2.36h-1.21V65.41h1.28c.91,0,1.68.29,1.68,1.19s-.77,1.21-1.76,1.21M208.85,72l-2.1-3.44a2,2,0,0,0,1.82-2c0-1.52-1.22-2.07-2.67-2.07h-2.4V72h1V68.68h1.12L207.58,72Zm6.45-2.76h-2.8l1.41-3.51ZM216.43,72h1.19l-3.22-7.49h-1L210.2,72h1.16l.75-1.84h3.56Zm8.23,0H226V64.52h-1v6h0l-3.92-6h-1.37V72h1V65.89h0Zm5-3.76a2.84,2.84,0,0,1,2.85-3,2.34,2.34,0,0,1,1.86.88l.83-.64a3.39,3.39,0,0,0-2.69-1.16,3.94,3.94,0,1,0,0,7.88,3.41,3.41,0,0,0,2.86-1.35l-.84-.57a2.37,2.37,0,0,1-2,1,2.81,2.81,0,0,1-2.82-3M237.42,72h1V64.52h-1Zm4.73-5.59a1.31,1.31,0,0,1,1.46-1.22,1.79,1.79,0,0,1,1.46.7l.74-.72a2.94,2.94,0,0,0-2.15-.86c-1.24,0-2.57.65-2.57,2.14s1,1.81,1.95,2.11,1.78.54,1.78,1.45a1.36,1.36,0,0,1-1.5,1.28,2,2,0,0,1-1.67-.88l-.82.69a3.15,3.15,0,0,0,2.47,1.09,2.32,2.32,0,0,0,2.59-2.28c0-1.49-1.2-1.87-2.2-2.19-.85-.28-1.53-.5-1.53-1.31m7,1.83a2.84,2.84,0,0,1,2.85-3,2.34,2.34,0,0,1,1.86.88l.83-.64A3.38,3.38,0,0,0,252,64.33a3.94,3.94,0,1,0,0,7.88,3.41,3.41,0,0,0,2.86-1.35l-.84-.57a2.37,2.37,0,0,1-2,1,2.81,2.81,0,0,1-2.82-3m14.09,0a2.84,2.84,0,1,1-2.85-3,2.82,2.82,0,0,1,2.85,3m1.13,0a4,4,0,1,0-4,3.95,3.8,3.8,0,0,0,4-3.95" transform="translate(-36 -34.52)"></path> </svg> 